<?xml version="1.0" encoding="UTF-8"?>
<!DOCTYPE svg PUBLIC "-//W3C//DTD SVG 1.1//EN" "http://www.w3.org/Graphics/SVG/1.1/DTD/svg11.dtd">
<svg xmlns="http://www.w3.org/2000/svg" version="1.1" width="512px" height="512px" style="shape-rendering:geometricPrecision; text-rendering:geometricPrecision; image-rendering:optimizeQuality; fill-rule:evenodd; clip-rule:evenodd" xmlns:xlink="http://www.w3.org/1999/xlink">
<g><path style="opacity:0.995" fill="#8cc9f6" d="M 511.5,196.5 C 511.5,207.5 511.5,218.5 511.5,229.5C 507.387,259.738 496.553,287.404 479,312.5C 469.927,323.247 460.427,333.747 450.5,344C 440.358,352.823 429.692,360.823 418.5,368C 430.533,415.901 452.2,458.734 483.5,496.5C 452.544,493.463 423.21,484.629 395.5,470C 365.362,454.197 339.029,433.53 316.5,408C 296.291,410.656 275.958,412.156 255.5,412.5C 181.816,413.333 116.816,390.5 60.5,344C 53.3092,335.811 45.8092,327.977 38,320.5C 16.9186,293.669 4.08531,263.336 -0.5,229.5C -0.5,218.5 -0.5,207.5 -0.5,196.5C 3.99822,163.17 16.4982,133.17 37,106.5C 50.2807,92.5477 64.1141,79.381 78.5,67C 145.832,22.0044 219.832,5.0044 300.5,16C 355.681,23.1036 404.681,44.1036 447.5,79C 454.65,87.3172 462.317,95.1506 470.5,102.5C 493.481,129.792 507.147,161.126 511.5,196.5 Z"/></g>
</svg>
